{"title":"Fearless (2006).DVDrip.XviD - Italian English.Chinese - Ac3 5.1 ","uid":11788017,"size":2234889449,"categoryP":"video","categoryS":"movies","magnet":"?xt=urn:btih:40a4cf2cb232bb32e6245c7cec0959de9ece8a8c&amp;dn=Fearless+%282006%29.DVDrip.XviD+-+Italian+English.Chinese+-+Ac3+5.1+&amp;tr=udp%3A%2F%2Ftracker.openbittorrent.com%3A80&amp;tr=udp%3A%2F%2Fopen.demonii.com%3A1337&amp;tr=udp%3A%2F%2Ftracker.coppersurfer.tk%3A6969&amp;tr=udp%3A%2F%2Fexodus.desync.com%3A6969","seeders":9,"leechers":4,"uploader":"robbyrs4","files":4,"time":1427824817,"description":"Fearless (2006).DVDrip.XviD - Italian English.Chinese - Ac3 5.1 - Sub.Ita.MIRCrew\n\n\n\n[center]\n\n[color=red][b][img]http://s19.postimg.org/9qdjr7p77/Original_release_2.png[/img]\n\n[u]NO FOUND ONLY ORIGINAL RELEASE[/u]\n\nFearless (2006)\n\n\n[img]http://i.imgur.com/i4E2d.jpg[/img]\n\n[URL=http://www.imdb.com/title/tt0446059/][IMG]http://www.userlogos.org/files/logos/Sucka/imdb_new.png[/IMG][/URL]  \n\n[img]http://s19.postimg.org/vz5tzn42b/1_scheda.png[/img]\n\nTitolo originale \tHuo Yuanjia\nPaese di produzione \tCina\nAnno \t2006\nDurata \t105 min (Director's Cut: 140 min)\nGenere \tarti marziali\nRegia \tRonny Yu\nSceneggiatura \tRonny Yu\nProduttore \tWilliam Kong\nDistribuzione (Italia) \t01 Distribution\nMusiche \tShigeru Umebayashi\nScenografia \tJ. Michael Riva\n\n[img]http://s19.postimg.org/q8fnlww2b/1_cast.png[/img]\n\n\n \n\n    Jet Li: Huo Yuanjia\n    Shido Nakamura: Anno Tanaka\n    Betty Sun: Luna\n    Dong Yong: Nong Jinsun\n    Paw Hee Ching: madre di Yuanjia\n    Collin Chou: Huo Endi (padre di Yuanjia)\n    Qu Yun: nonna\n    Masato Harada: Mita\n    Nathan Jones: Hercules O'Brien\n    Brendon Rhea: combattente belga\n    Anthony De Longis: spadacciano spagnolo\n    Jean Claude Leuyer: boxeur inglese\n    Mike Leeder: arbitro\n    Jon T. Benn: uomo d'affari americano\n    John Paisley: uomo d'affari inglese\n\n\n\n  \n[img]http://s19.postimg.org/okgi79i6r/1_trama.png[/img]. \n\n14 settembre 1910. Il maestro di Wushu Huo Yuanjia combatte contro tre lottatori europei: il pugile Peter Smith, l'istruttore dei lancieri del Belgio Hans Herzog e il campione di scherma Anthony Garcia. Dopo averli sconfitti tutti, appena prima di affrontare il campione giapponese Anno Tanaka, ha inizio il lungo flashback della sua vita......\n\n\n[img]http://s19.postimg.org/fzn6g380j/1_story.png[/img]\n\nA biography of Chinese Martial Arts Master Huo Yuanjia, who is the founder and spiritual guru of the Jin Wu Sports Federation......................................\n\n &lt;a href=&quot;\nhttp://extraimago.com/images/2015/03/31/vlcsnap-2015-03-31-17h48m55s254.png[/img]&quot; rel=&quot;nofollow&quot; target=&quot;_NEW&quot;&gt;\nhttp://extraimago.com/images/2015/03/31/vlcsnap-2015-03-31-17h48m55s254.png[/img]&lt;/a&gt; &lt;a href=&quot;\nhttp://extraimago.com/images/2015/03/31/vlcsnap-2015-03-31-17h49m04s87.png[/img]&quot; rel=&quot;nofollow&quot; target=&quot;_NEW&quot;&gt;\nhttp://extraimago.com/images/2015/03/31/vlcsnap-2015-03-31-17h49m04s87.png[/img]&lt;/a&gt; &lt;a href=&quot;\nhttp://extraimago.com/images/2015/03/31/vlcsnap-2015-03-31-17h49m22s8.png[/img]&quot; rel=&quot;nofollow&quot; target=&quot;_NEW&quot;&gt;\nhttp://extraimago.com/images/2015/03/31/vlcsnap-2015-03-31-17h49m22s8.png[/img]&lt;/a&gt;\n\n\n[IMG]http://img153.imageshack.us/img153/3158/restateinseedblood.gif[/img]\n\n\n[img]http://imgur.com/lvhU6.gif[/img]\n\n\n[img]http://s19.postimg.org/a2jaz9qvn/1_dati.png[/img]\n\n\n[spoiler]\n\nGeneral\nComplete name                            : Fearless (2006).ita.eng.chn.sub.ita.eng.MIRCrewFearless (2006).ita.eng.chn.sub.ita.eng.MIRCrew.avi\nFormat                                   : AVI\nFormat/Info                              : Audio Video Interleave\nFormat profile                           : OpenDML\nFile size                                : 2.08 GiB\nDuration                                 : 1h 43mn\nOverall bit rate                         : 2 874 Kbps\nMovie name                               : MIRCrew by robbyrs\nWriting application                      : VirtualDubMod 1.5.10.2 (build 2540/release)\nWriting library                          : VirtualDubMod build 2540/release\n\nVideo\nID                                       : 0\nFormat                                   : MPEG-4 Visual\nFormat profile                           : Simple@L3\nFormat settings, BVOP                    : No\nFormat settings, QPel                    : No\nFormat settings, GMC                     : No warppoints\nFormat settings, Matrix                  : Default (H.263)\nCodec ID                                 : XVID\nCodec ID/Hint                            : XviD\nDuration                                 : 1h 43mn\nBit rate                                 : 1 505 Kbps\nWidth                                    : 720 pixels\nHeight                                   : 304 pixels\nDisplay aspect ratio                     : 2.35:1\nFrame rate                               : 23.976 fps\nColor space                              : YUV\nChroma subsampling                       : 4:2:0\nBit depth                                : 8 bits\nScan type                                : Progressive\nCompression mode                         : Lossy\nBits/(Pixel*Frame)                       : 0.287\nStream size                              : 1.09 GiB (52%)\nWriting library                          : XviD 64\n\nAudio #1\nID                                       : 1\nFormat                                   : AC-3\nFormat/Info                              : Audio Coding 3\nMode extension                           : CM (complete main)\nCodec ID                                 : 2000\nDuration                                 : 1h 43mn\nBit rate mode                            : Constant\nBit rate                                 : 448 Kbps\nChannel(s)                               : 6 channels\nChannel positions                        : Front: L C R, Side: L R, LFE\nSampling rate                            : 44.1 KHz\nBit depth                                : 16 bits\nCompression mode                         : Lossy\nStream size                              : 332 MiB (16%)\nAlignment                                : Split accross interleaves\nInterleave, duration                     : 42 ms (1.00 video frame)\nInterleave, preload duration             : 500 ms\n\nAudio #2\nID                                       : 2\nFormat                                   : AC-3\nFormat/Info                              : Audio Coding 3\nMode extension                           : CM (complete main)\nCodec ID                                 : 2000\nDuration                                 : 1h 43mn\nBit rate mode                            : Constant\nBit rate                                 : 448 Kbps\nChannel(s)                               : 6 channels\nChannel positions                        : Front: L C R, Side: L R, LFE\nSampling rate                            : 48.0 KHz\nBit depth                                : 16 bits\nCompression mode                         : Lossy\nStream size                              : 332 MiB (16%)\nAlignment                                : Split accross interleaves\nInterleave, duration                     : 42 ms (1.00 video frame)\nInterleave, preload duration             : 500 ms\n\nAudio #3\nID                                       : 3\nFormat                                   : AC-3\nFormat/Info                              : Audio Coding 3\nMode extension                           : CM (complete main)\nCodec ID                                 : 2000\nDuration                                 : 1h 43mn\nBit rate mode                            : Constant\nBit rate                                 : 448 Kbps\nChannel(s)                               : 6 channels\nChannel positions                        : Front: L C R, Side: L R, LFE\nSampling rate                            : 44.1 KHz\nBit depth                                : 16 bits\nCompression mode                         : Lossy\nStream size                              : 332 MiB (16%)\nAlignment                                : Split accross interleaves\nInterleave, duration                     : 42 ms (1.00 video frame)\nInterleave, preload duration             : 500 ms\n\n\n\n\n\n[/spoiler]\n\n[/color][/b][/center]","torrent":{"xt":"urn:btih:40a4cf2cb232bb32e6245c7cec0959de9ece8a8c","amp;dn":"Fearless+%282006%29.DVDrip.XviD+-+Italian+English.Chinese+-+Ac3+5.1+","amp;tr":["udp%3A%2F%2Ftracker.openbittorrent.com%3A80","udp%3A%2F%2Fopen.demonii.com%3A1337","udp%3A%2F%2Ftracker.coppersurfer.tk%3A6969","udp%3A%2F%2Fexodus.desync.com%3A6969"],"infoHash":"40a4cf2cb232bb32e6245c7cec0959de9ece8a8c","infoHashBuffer":{"type":"Buffer","data":[64,164,207,44,178,50,187,50,230,36,92,124,236,9,89,222,158,206,138,140]},"announce":[],"urlList":[]}}